<svg viewBox="0 0 48 48" xmlns="http://www.w3.org/2000/svg"><path d="m0 0h48v48h-48z" fill="none"/><path d="m47.03 40.17c0 2.21-1.79 4-4 4s-4-1.79-4-4 4-9 4-9 4 6.79 4 9z" fill="#d4d5d7"/><g fill="#282c36"><path d="m16.808 43.513a5.31 5.31 0 0 1 -3.765-1.556l-11.525-12.025c-1.639-1.627-2.021-4.125-.933-6.197a5.74 5.74 0 0 1  .937-1.271l19.031-19.031c.189-.189.464-.275.714-.293a1 1 0 0 1  .71.303l20.57 21.17a1 1 0 0 1 -.717 1.697h-3.916l-17.404 15.683a5.217 5.217 0 0 1 -3.702 1.52zm-14.455-18.843a3.316 3.316 0 0 0  .592 3.86l11.527 12.027c1.273 1.274 3.372 1.273 4.661-.015l17.727-15.974a1 1 0 0 1  .67-.258h1.934l-18.214-18.746-18.303 18.303c-.236.244-.44.518-.594.803zm40.677 20.5c-2.757 0-5-2.243-5-5 0-2.363 3.447-8.334 4.138-9.508.36-.609 1.363-.609 1.724 0 .691 1.173 4.138 7.145 4.138 9.508 0 2.757-2.243 5-5 5zm0-11.977c-1.399 2.539-3 5.818-3 6.977 0 1.654 1.346 3 3 3s3-1.346 3-3c0-1.109-1.555-4.351-3-6.977z"/><path d="m7.728 17.729-.07-.08-3.375-3.373a5.933 5.933 0 0 1 -1.743-4.196 5.91 5.91 0 0 1 1.743-4.207 5.9 5.9 0 0 1 4.202-1.741c1.587 0 3.08.618 4.202 1.741l8.15 8.15-1.414 1.414-8.15-8.15c-1.49-1.49-4.087-1.489-5.576 0a3.926 3.926 0 0 0 -1.157 2.793c0 1.041.412 2.03 1.161 2.786l3.531 3.544z"/><path d="m17.271 13.55h6.088v2h-6.088z" transform="matrix(.70709444 -.70711912 .70711912 .70709444 -4.338207 18.626901)"/><path d="m35.27 28.455-.2-.02-33.136-3.21.192-1.99 33.344 3.23z"/></g></svg>