<svg viewBox="0 0 48 48" xmlns="http://www.w3.org/2000/svg"><path d="m0 0h48v48h-48z" fill="none"/><circle cx="44.5" cy="26.5" fill="#d4d5d7" r="2.5"/><path d="m32.604 33.56c-1.076.272-2.161.41-3.225.41-7.272 0-13.189-5.917-13.189-13.19 0-3.609 1.439-6.983 4.053-9.5a1 1 0 0 0 -.591-1.715c-.684-.07-1.3-.105-1.882-.105-9.798 0-17.77 7.972-17.77 17.77s7.972 17.77 17.77 17.77c6.851 0 12.974-3.845 15.979-10.033a1.001 1.001 0 0 0 -1.145-1.407zm-14.834 9.44c-8.696 0-15.77-7.074-15.77-15.77 0-8.568 6.869-15.562 15.39-15.766a15.026 15.026 0 0 0 -3.199 9.315c0 8.376 6.814 15.19 15.189 15.19.515 0 1.034-.028 1.555-.083a15.637 15.637 0 0 1 -13.165 7.114z" fill="#282c36"/><path d="m12.384 37.474-.928 1.771a15.174 15.174 0 0 0 7.061 1.758c1.61 0 3.227-.26 4.8-.785l-.633-1.897c-3.424 1.141-7.081.84-10.3-.847zm28.616-27.474v-2h-4v-4h-2v4h-4v2h4v4h2v-4zm3.5 13c-1.93 0-3.5 1.57-3.5 3.5s1.57 3.5 3.5 3.5 3.5-1.57 3.5-3.5-1.57-3.5-3.5-3.5zm0 5c-.827 0-1.5-.673-1.5-1.5s.673-1.5 1.5-1.5 1.5.673 1.5 1.5-.673 1.5-1.5 1.5z" fill="#282c36"/></svg>