<svg viewBox="0 0 48 48" xmlns="http://www.w3.org/2000/svg"><path d="m0 0h48v48h-48z" fill="none"/><path d="m47 23.78c.06 9.03-5.1 16.88-12.64 20.69-.12.06-.24.12-.36.17-2.98 1.46-6.32 2.27-9.86 2.29-3.64.02-7.08-.81-10.14-2.29-.03-.01-.05-.03-.08-.04-7.61-3.7-12.87-11.5-12.93-20.54-.08-12.7 10.16-23.06 22.87-23.14 12.7-.08 23.06 10.16 23.14 22.86zm-15.34 15.33c5.57-2.82 9.38-8.62 9.34-15.3-.06-9.38-7.72-16.95-17.11-16.89s-16.96 7.71-16.9 17.1c.04 6.68 3.93 12.45 9.56 15.18.02.01.03.03.06.03 2.26 1.1 4.8 1.71 7.49 1.7 2.62-.02 5.09-.62 7.29-1.7.09-.03.18-.08.27-.12z" fill="#d4d5d7"/><g fill="#282c36"><path d="m29.87 30c-.65.02-1.04-.14-1.39-1.1-.18-.55-.35-1.11-.52-1.68.23-.13.45-.28.66-.46 1.07-.9 1.61-2.28 1.6-4.1h-2c0 1.19-.28 2.02-.85 2.54-.94-3.23-1.77-6.4-2.34-8.53-.21-.8-.38-1.46-.51-1.93a.994.994 0 0 0 -.96-.74c-.46 0-.85.3-.97.74-.16.59-.39 1.48-.66 2.56-.55 2.17-1.3 5.13-2.15 8.11-.92-.15-1.73-.26-2.4-.26a3.432 3.432 0 0 0 -3.38 3.59c.09 1.78 1.54 3.21 3.3 3.26h.12c1.57 0 2.63-.81 3.23-2.5.19-.6.38-1.21.56-1.83 1.61.25 3.33.44 4.86.19.16.55.33 1.1.5 1.64l.01.03c.6 1.66 1.65 2.47 3.22 2.47h.12c.55-.01 1.1-.17 1.58-.45l-1-1.73c-.19.11-.41.17-.63.18zm-11.11-1.14c-.36.99-.73 1.16-1.41 1.14-.71-.02-1.31-.62-1.35-1.35-.02-.39.12-.77.38-1.05.27-.28.63-.44 1.02-.45h.05c.46 0 1.08.09 1.77.19-.15.52-.31 1.02-.46 1.52zm3.01-3.13c.69-2.43 1.3-4.82 1.8-6.77.53 2 1.2 4.46 1.92 6.96-1.11.14-2.44 0-3.72-.19z"/><path d="m40.865 6.846c-4.525-4.47-10.505-6.926-16.855-6.926h-.156c-6.415.04-12.43 2.574-16.937 7.135s-6.967 10.6-6.927 17.01c.06 9.205 5.23 17.418 13.493 21.435a.04.04 0 0 1  .01.004c.02.012.046.023.072.035a23.784 23.784 0 0 0 10.44 2.39h.14c3.633-.02 7.097-.825 10.238-2.366.143-.06.286-.13.428-.2 8.197-4.143 13.249-12.415 13.189-21.59a23.856 23.856 0 0 0 -7.135-16.928zm-6.957 36.73c-.097.05-.194.1-.348.165-2.926 1.435-6.097 2.17-9.426 2.19-3.385-.026-6.655-.72-9.7-2.19l-.014-.008-.064-.03v-.003c-7.57-3.68-12.31-11.21-12.366-19.646a21.84 21.84 0 0 1 6.35-15.594 21.876 21.876 0 0 1 15.526-6.54c5.865.01 11.413 2.217 15.593 6.35a21.863 21.863 0 0 1 6.541 15.516c.056 8.41-4.577 15.993-12.092 19.79z"/><path d="m23.884 5.92c-9.93.064-17.957 8.186-17.894 18.105.04 6.89 3.902 13.037 10.077 16.052a17.798 17.798 0 0 0 7.965 1.852h.075c2.71-.022 5.294-.62 7.677-1.78a3.42 3.42 0 0 0  .217-.096l.11-.052c6.142-3.11 9.93-9.316 9.89-16.2-.066-9.921-8.221-17.921-18.118-17.881zm7.37 32.276-.183.087a.855.855 0 0 0 -.12.05 15.713 15.713 0 0 1 -6.854 1.597c-2.453.037-4.848-.528-7.05-1.6l-.02-.01a.534.534 0 0 0 -.04-.02c-5.514-2.674-8.96-8.148-8.997-14.288-.056-8.816 7.08-16.035 15.906-16.092h.104c8.775 0 15.943 7.11 16 15.896.037 6.12-3.332 11.638-8.745 14.38z"/></g></svg>