<svg height="256" viewBox="0 0 449 256" width="449" xmlns="http://www.w3.org/2000/svg"><g fill="none" fill-rule="evenodd"><path d="m0 0h449v256h-449z" fill="#ededed" fill-rule="nonzero"/><g transform="translate(31 18)"><path d="m372.11 69.39c-2.01 40.39 27.81 54.07 8.05 97.81-38.59 85.38-161.51 38.13-269.92 49.4-137.86 14.34-133.34-115.54-57.85-133.1 82.22-19.12 114.01-41.46 164.14-66.42 60.53-30.15 159.37-23.61 155.58 52.31z" fill="#fff"/><path d="m41.45 189.34v-123.12c0-1.5 1.01-2.77 2.38-3.17-1.9.01-3.43 1.56-3.43 3.46v122.67c0 1.91 1.55 3.46 3.46 3.46h.9a3.293 3.293 0 0 1 -3.31-3.3z" fill="#a8a8a8"/><path d="m41.45 66.23v123.12c0 1.82 1.48 3.3 3.3 3.3l193.55-.01c1.82 0 3.3-1.48 3.3-3.3v-123.11c0-1.82-1.48-3.3-3.3-3.3h-193.55a3.29 3.29 0 0 0 -3.3 3.3z" fill="#2c2c2c"/><path d="m47.06 72.22h188.94v111.12h-188.94z" fill="#fff" fill-rule="nonzero"/><path d="m124.12 199.8v15.66c86.5-5.26 179.45 20.97 230.06-15.66z" fill="#a86d33"/><ellipse cx="298.013" cy="151.904" fill="#309f90" fill-rule="nonzero" rx="18.191" ry="26.761" transform="matrix(.99664882 -.08179935 .08179935 .99664882 -11.426953 24.886328)"/><path d="m330.44 119.54c-9.61 17.32-26.06 15.35-26.06 15.35s-12.42-12.39-4.68-29.88c5.59-12.63 17.57-19.36 26.06-15.35 8.49 4.02 11.38 17.81 4.68 29.88zm-41.53-2.91c3.84 8.8-4.3 20.84-4.3 20.84s-14.36-2.24-18.19-11.04c-3.84-8.8-1.91-18.13 4.3-20.84 6.21-2.7 14.35 2.24 18.19 11.04z" fill="#309f90" fill-rule="nonzero"/><path d="m285.03 113.36 2.89-2.76m-1.19 7.8 3.86-1.07m-17.69-5.23 1.92 3.51m19.66 8.03 1.58 3.68m-17.09-18.38.88-3.91m38.06-14.97-.2-3.39m5.57 3.5.74-3.32m-56.33 35.33-3.28 2.3m12.82-4.84-3.27 2.3m12.86 2.52-2.91-2.75m7.36 5.61-4-.09m-9.37-2.65-1.43 3.74m-5.66 1.04-1.37 3.76m8.44 1.29-1.38 3.76m13.25 32.91-3.66 2.79m-3.14-13.48-4.51.93m32.38-5.83-3.18-3.32m-2.07-21.56-2.83 2.69m-8.83 25.97-3.33 3.17m10.41-8.09-.37 4.59m14.24-17.13-3.33 3.18m5.54 16.79-4.59.31m6.07-11.65-4.6.31m-26.63 3.44-4.59.31m23.75 7.2-.77 4.54m-1.26 7.19 1.33 4.41m-22.09-36.99 3.34 3.17m4.54 3.29.05 4.6m6.37-7.11 2.07 4.11m-2.07 17.48 2.07 4.12m-10.45-35.63 1.96 4.17m5.5-6.68.05 4.6m8.43 1.4-.86 4.52m-7.19 32.27-.86 4.53m-19.21-34.79 4.17 1.95m28.37 21.6 3.22 3.29m13.69-78.35 3.33-2.43m-.14 7.29 3.66-1.88m-61.41 10.83-1.25-4.69m12.73 31.07-1.25-4.69m49.58-23.11 4.11-.25m-4.1 7.96 3.81 1.55m-28.61-13.84 4.06-.7m-14.81 20.59 4.05-.71m-38.59-3.8 4.78-.83m46.51-8.32 2.55-3.23m-20.25 8.19 4.06-.71m4.29-18.84 4.21 2.42m2.98-6.18 2.18 3.49m-15.02 9.05 3.57 2.05m-37.47 4.06 4.2 2.41m13.35 1.4-1.45 4.63m37.5-17 1.49-3.84m4.12 8.64 1.2-3.94m-4.82 21.2 1.2-3.94m-1.25 17.72-.22-4.11m7.26-14.22-.86-4.02m-8.08-1.81 2.25-3.44m-6.37 18.31.62-4.06m-4.89 12.04.61-4.07m-.08-12.65 2.25-3.45m-9.08 13.72 2.25-3.45m-2.13-13.05 2.89-2.94m21.6 19.57-2.14-3.52" stroke="#f0bf6c" stroke-linecap="round" stroke-width=".988"/><path d="m280.62 165.07 35.65-.1c1.36 0 2.44 1.16 2.32 2.52l-2.88 32.32h-34.54c0-.02.01-.05.01-.07l-2.86-32.15c-.12-1.35.94-2.52 2.3-2.52z" fill="#21444f" fill-rule="nonzero"/><path d="m85.75 72.22h150.25v111.12h-150.25z" fill="#ccc" fill-rule="nonzero" opacity=".8"/><path d="m25.61 199.8c.26.19.52.38.78.58.01.01.02.02.03.02.25.18.51.36.76.55.02.01.03.02.05.04.25.18.51.35.76.53.02.01.04.03.06.04.26.18.52.35.78.52.02.01.03.02.05.03.27.18.54.35.81.53.01.01.02.01.03.02a78.75 78.75 0 0 0 8.17 4.59c.02.01.03.02.05.02.3.15.61.29.91.44.03.01.06.03.09.04.29.14.59.27.89.41.04.02.07.03.11.05.29.13.59.26.88.39.04.02.08.04.12.05.3.13.59.26.89.39.04.02.08.03.11.05.31.13.61.26.92.39.03.01.06.03.09.04.32.13.65.26.98.39.01.01.03.01.04.02 2.45.97 5 1.86 7.67 2.66.01 0 .02.01.03.01.36.11.73.22 1.1.32l.11.03c.34.1.69.2 1.03.29.05.01.1.03.16.04l1 .27c.06.02.12.03.18.05.33.09.66.17 1 .26.06.02.13.03.19.05.33.08.67.17 1.01.25.06.01.12.03.18.04.34.08.69.16 1.04.24.05.01.11.03.16.04l1.09.24.12.03c.4.09.79.17 1.19.25.01 0 .02 0 .03.01 2.5.51 5.09.96 7.76 1.33.03 0 .05.01.08.01.41.06.82.11 1.23.16.06.01.12.01.17.02.38.05.77.1 1.16.14l.22.03c.37.04.75.09 1.12.13l.25.03c.37.04.74.08 1.11.11l.26.03c.37.04.75.07 1.13.1.09.01.17.02.26.02.38.03.77.07 1.16.1.08.01.16.01.24.02l1.21.09c.06 0 .13.01.19.01.44.03.87.06 1.31.08.03 0 .07 0 .1.01 2.89.17 5.86.26 8.93.27h1.75c.43 0 .86-.01 1.29-.01h.3c.41-.01.83-.01 1.25-.02.11 0 .22-.01.33-.01l1.24-.03c.11 0 .23-.01.34-.01.41-.01.83-.03 1.25-.04.11 0 .22-.01.34-.01l1.27-.06c.11-.01.21-.01.32-.01.44-.02.88-.04 1.33-.07.09-.01.18-.01.27-.01l1.43-.09c.06 0 .12-.01.18-.01.54-.03 1.08-.07 1.62-.11l1.17-.09c1.78-.14 3.58-.3 5.41-.49 4.57-.48 9.2-.84 13.88-1.1v-15.73z" fill="#915e2c"/><g fill-rule="nonzero"><path d="m297.93 199.8h-187.76v-7.16h187.77c.7 0 1.26.56 1.26 1.26v4.64c-.01.7-.57 1.26-1.27 1.26z" fill="#d4d5d7"/><path d="m218.22 195.48h-28.71c-1.56 0-2.83-1.27-2.83-2.83h34.36a2.819 2.819 0 0 1 -2.82 2.83zm-108.05 4.32h-68.52c-.7 0-1.26-.56-1.26-1.26v-4.64c0-.7.56-1.26 1.26-1.26h68.51v7.16z" fill="#a9abaf"/><path d="m56.55 197.49h-3.76a.37.37 0 0 1 -.37-.37v-1.26c0-.21.17-.37.37-.37h3.76c.21 0 .37.17.37.37v1.26c0 .2-.17.37-.37.37zm7.7 0h-3.76a.37.37 0 0 1 -.37-.37v-1.26c0-.21.17-.37.37-.37h3.76c.21 0 .37.17.37.37v1.26c0 .2-.17.37-.37.37z" fill="#909194"/><path d="m222.76 106.43h-125.11a.96.96 0 0 1 -.96-.96v-10.2c0-.53.43-.96.96-.96h125.12c.53 0 .96.43.96.96v10.2c-.01.53-.44.96-.97.96z" fill="#f2f2f2"/><path d="m103.29 103.32c-1.77 0-3.2-1.43-3.2-3.2s1.43-3.2 3.2-3.2 3.2 1.43 3.2 3.2-1.43 3.2-3.2 3.2z" fill="#309f90"/><path d="m168.91 99.02h-57.49a.57.57 0 1 1 0-1.14h57.49a.57.57 0 1 1 0 1.14zm-17.61 3.54h-39.88a.57.57 0 1 1 0-1.14h39.88c.32 0 .57.26.57.57 0 .32-.25.57-.57.57z" fill="#999" opacity=".5"/></g><path d="m102.29 100.38.73.72 1.27-2.08" stroke="#fff" stroke-linecap="round" stroke-linejoin="round" stroke-width=".629"/><path d="m222.76 122.23h-125.11a.96.96 0 0 1 -.96-.96v-10.2c0-.53.43-.96.96-.96h125.12c.53 0 .96.43.96.96v10.2c-.01.53-.44.96-.97.96z" fill="#f2f2f2" fill-rule="nonzero"/><path d="m103.29 119.11c-1.77 0-3.2-1.43-3.2-3.2s1.43-3.2 3.2-3.2 3.2 1.43 3.2 3.2-1.43 3.2-3.2 3.2z" fill="#309f90" fill-rule="nonzero"/><path d="m168.91 114.82h-57.49a.57.57 0 1 1 0-1.14h57.49a.57.57 0 1 1 0 1.14zm-17.61 3.54h-39.88a.57.57 0 1 1 0-1.14h39.88a.57.57 0 1 1 0 1.14z" fill="#999" fill-rule="nonzero" opacity=".5"/><path d="m102.29 116.17.73.73 1.27-2.08" stroke="#fff" stroke-linecap="round" stroke-linejoin="round" stroke-width=".629"/><g fill-rule="nonzero"><path d="m222.76 139.39h-125.11a.96.96 0 0 1 -.96-.96v-10.2c0-.53.43-.96.96-.96h125.12c.53 0 .96.43.96.96v10.2c-.01.54-.44.96-.97.96z" fill="#fff"/><g fill="#d4d5d7"><path d="m103.29 136.28c-1.77 0-3.2-1.43-3.2-3.2s1.43-3.2 3.2-3.2 3.2 1.43 3.2 3.2-1.43 3.2-3.2 3.2z"/><path d="m129.58 131.98h-18.16a.57.57 0 1 1 0-1.14h18.16c.32 0 .57.26.57.57 0 .32-.25.57-.57.57zm20.15 3.55h-38.3a.57.57 0 1 1 0-1.14h38.3c.32 0 .57.26.57.57s-.26.57-.57.57z"/></g></g><g fill-rule="nonzero"><path d="m222.76 155.87h-125.11a.96.96 0 0 1 -.96-.96v-10.2c0-.53.43-.96.96-.96h125.12c.53 0 .96.43.96.96v10.2c-.01.54-.44.96-.97.96z" fill="#fff"/><g fill="#d4d5d7"><path d="m103.29 152.76c-1.77 0-3.2-1.43-3.2-3.2s1.43-3.2 3.2-3.2 3.2 1.43 3.2 3.2-1.43 3.2-3.2 3.2z"/><path d="m181.5 148.46h-70.07a.57.57 0 1 1 0-1.14h70.07a.57.57 0 1 1 0 1.14zm-17.61 3.55h-52.46a.57.57 0 1 1 0-1.14h52.46c.32 0 .57.26.57.57s-.26.57-.57.57z"/></g></g><g fill-rule="nonzero"><path d="m222.76 172.35h-125.11a.96.96 0 0 1 -.96-.96v-10.2c0-.53.43-.96.96-.96h125.12c.53 0 .96.43.96.96v10.2c-.01.54-.44.96-.97.96z" fill="#fff"/><g fill="#d4d5d7"><path d="m103.29 169.24c-1.77 0-3.2-1.43-3.2-3.2s1.43-3.2 3.2-3.2 3.2 1.43 3.2 3.2-1.43 3.2-3.2 3.2z"/><path d="m154.75 164.94h-43.33a.57.57 0 1 1 0-1.14h43.33c.32 0 .57.26.57.57 0 .32-.25.57-.57.57zm-19.18 3.55h-24.14a.57.57 0 1 1 0-1.14h24.14c.32 0 .57.26.57.57s-.26.57-.57.57z"/></g></g><path d="m139.52 88.04h-41.04c-.99 0-1.79-.8-1.79-1.79s.8-1.79 1.79-1.79h41.04c.99 0 1.79.8 1.79 1.79s-.8 1.79-1.79 1.79z" fill="#a9abaf" fill-rule="nonzero"/><path d="m76.37 82.54h-21.3a.57.57 0 1 1 0-1.14h21.3a.57.57 0 1 1 0 1.14zm-7.86 4.13h-13.44a.57.57 0 1 1 0-1.14h13.44c.32 0 .57.26.57.57s-.26.57-.57.57zm7.86 4.12h-21.3a.57.57 0 1 1 0-1.14h21.3a.57.57 0 1 1 0 1.14zm-3.14 4.12h-18.16a.57.57 0 1 1 0-1.14h18.16a.57.57 0 1 1 0 1.14zm3.14 4.13h-21.3a.57.57 0 1 1 0-1.14h21.3a.57.57 0 1 1 0 1.14zm-6.29 4.12h-15.01a.57.57 0 1 1 0-1.14h15.01c.32 0 .57.26.57.57 0 .32-.25.57-.57.57zm3.15 4.13h-18.16a.57.57 0 1 1 0-1.14h18.16c.32 0 .57.26.57.57s-.26.57-.57.57z" fill="#d4d5d7" fill-rule="nonzero"/></g></g></svg>